<?xml version="1.0" standalone="no"?>
<!DOCTYPE svg PUBLIC "-//W3C//DTD SVG 20010904//EN"
 "http://www.w3.org/TR/2001/REC-SVG-20010904/DTD/svg10.dtd">
<svg version="1.0" xmlns="http://www.w3.org/2000/svg"
 width="400.000000pt" height="400.000000pt" viewBox="0 0 400.000000 400.000000"
 preserveAspectRatio="xMidYMid meet">
<metadata>
Created by potrace 1.11, written by Peter Selinger 2001-2013
</metadata>
<g transform="translate(0.000000,400.000000) scale(0.100000,-0.100000)"
fill="#000000" stroke="none">
<path d="M2793 3544 c4 -7 0 -15 -9 -18 -10 -4 -13 -2 -8 6 5 8 2 9 -12 4 -10
-5 -30 -10 -44 -11 -14 -2 -27 -4 -30 -5 -3 -1 -8 -2 -12 -1 -5 0 -8 -4 -8
-10 0 -6 -6 -9 -14 -6 -7 3 -19 0 -25 -6 -8 -8 -11 -8 -11 1 0 10 -3 10 -14 0
-8 -7 -12 -16 -10 -19 2 -3 -10 -5 -26 -4 -26 2 -34 -5 -32 -26 0 -3 -11 -5
-26 -5 -18 1 -26 -4 -24 -13 2 -8 -3 -11 -13 -8 -8 4 -15 2 -15 -4 0 -6 -3 -8
-7 -6 -11 7 -33 -19 -25 -27 3 -4 -1 -4 -11 0 -11 4 -19 0 -23 -10 -3 -9 -13
-16 -21 -16 -8 0 -11 -5 -7 -12 5 -8 2 -9 -9 -5 -9 3 -16 3 -14 -1 3 -10 -86
-97 -95 -94 -4 1 -5 -5 -2 -12 3 -8 -4 -19 -16 -26 -14 -8 -19 -17 -15 -28 3
-9 3 -13 -1 -10 -8 8 -34 -14 -27 -24 2 -5 -1 -8 -7 -8 -6 0 -8 -4 -5 -10 3
-5 1 -10 -4 -10 -6 0 -11 -7 -11 -15 0 -8 -4 -15 -10 -15 -5 0 -7 -7 -4 -15 4
-9 0 -15 -8 -15 -10 0 -14 -10 -13 -30 1 -16 -1 -28 -4 -26 -3 2 -12 -2 -19
-10 -10 -11 -10 -14 0 -14 9 0 9 -3 1 -11 -6 -6 -9 -18 -6 -25 3 -8 0 -14 -6
-14 -6 0 -10 -3 -10 -7 1 -5 0 -10 -1 -13 -1 -3 -4 -21 -6 -40 -6 -55 -10 -69
-17 -76 -4 -4 -1 -14 6 -22 9 -13 9 -14 0 -8 -8 4 -13 1 -13 -9 0 -10 5 -13
12 -9 6 4 8 3 4 -4 -9 -16 -15 -92 -7 -92 4 0 8 -7 8 -15 0 -8 -4 -12 -9 -9
-4 3 -8 0 -8 -5 0 -6 5 -11 11 -11 6 0 9 -9 6 -20 -3 -11 -2 -20 2 -20 4 0 7
-16 6 -37 -2 -33 16 -88 26 -79 2 3 5 -7 5 -20 1 -15 -2 -21 -10 -17 -6 4 -5
-1 3 -10 7 -9 16 -15 20 -12 4 2 7 -10 6 -28 -2 -20 -7 -31 -15 -29 -8 2 -10
-3 -6 -13 3 -9 2 -13 -4 -10 -6 3 -10 1 -10 -4 0 -6 -7 -11 -16 -11 -8 0 -13
-4 -10 -8 7 -11 -61 -72 -70 -63 -4 3 -4 -2 -1 -11 6 -17 -3 -23 -27 -19 -5 1
-6 -5 -3 -13 4 -9 -2 -16 -15 -19 -11 -3 -17 -10 -14 -16 4 -5 -3 -12 -14 -16
-11 -3 -20 -11 -20 -16 0 -6 -5 -7 -10 -4 -6 4 -9 3 -8 -2 4 -11 -84 -103 -93
-97 -4 2 -10 -5 -14 -16 -3 -11 -13 -20 -21 -20 -8 0 -12 -4 -9 -10 3 -5 1
-10 -5 -10 -6 0 -9 -4 -5 -9 3 -5 -3 -12 -13 -15 -10 -4 -28 -20 -41 -36 -12
-17 -27 -28 -33 -24 -7 5 -9 1 -5 -9 3 -10 2 -17 -4 -17 -6 0 -27 -18 -46 -40
-20 -22 -40 -37 -44 -34 -5 3 -9 1 -9 -5 0 -16 -46 -61 -54 -53 -4 4 -6 2 -4
-4 4 -14 -67 -85 -77 -76 -3 4 -5 3 -4 -3 4 -12 -80 -101 -91 -98 -5 2 -12 -6
-15 -17 -4 -11 -10 -20 -15 -20 -5 0 -12 -9 -15 -20 -4 -11 -11 -18 -16 -15
-5 4 -9 1 -9 -5 0 -6 -4 -9 -9 -5 -5 3 -12 -4 -16 -15 -4 -11 -11 -17 -17 -14
-7 5 -9 1 -5 -9 6 -16 -4 -22 -27 -18 -5 1 -6 -5 -3 -13 4 -9 -2 -16 -15 -19
-11 -3 -17 -10 -14 -16 4 -5 -3 -12 -14 -16 -11 -3 -20 -11 -20 -16 0 -6 -5
-7 -10 -4 -6 4 -9 3 -8 -2 4 -11 -84 -103 -92 -98 -4 2 -12 -7 -18 -20 -7 -14
-17 -25 -23 -25 -6 0 -8 -7 -5 -16 5 -14 4 -15 -9 -4 -12 10 -15 10 -15 -3 0
-8 -7 -18 -16 -21 -8 -3 -12 -10 -9 -16 3 -5 -1 -10 -9 -10 -8 0 -18 -9 -21
-20 -4 -11 -11 -18 -16 -15 -5 4 -9 1 -9 -5 0 -6 -5 -8 -12 -4 -8 5 -9 2 -5
-10 4 -10 3 -15 -3 -11 -6 3 -10 1 -10 -4 0 -6 -7 -11 -16 -11 -8 0 -12 -5 -9
-10 3 -6 -1 -13 -9 -16 -9 -3 -13 -10 -10 -15 3 -5 -1 -9 -8 -9 -7 0 -24 -13
-38 -29 -13 -17 -28 -28 -32 -25 -5 3 -7 1 -6 -4 4 -13 -68 -83 -76 -74 -4 4
-6 2 -4 -3 4 -15 -53 -75 -65 -68 -6 4 -8 0 -4 -9 3 -10 -3 -20 -18 -28 -15
-8 -21 -18 -18 -28 4 -10 2 -13 -5 -8 -7 4 -13 2 -13 -3 -1 -6 -2 -17 -3 -23
-1 -7 3 -19 8 -27 9 -12 8 -13 -3 -7 -22 14 -7 -71 18 -98 12 -12 19 -26 16
-29 -3 -4 -2 -5 1 -3 9 7 33 -17 27 -26 -2 -5 3 -8 11 -8 8 0 16 -10 18 -22 2
-16 9 -22 22 -20 15 3 18 -1 13 -18 -3 -12 -3 -19 0 -16 10 10 43 -14 43 -32
0 -15 2 -15 11 -2 9 12 10 11 6 -6 -4 -17 0 -20 20 -18 21 2 22 0 11 -14 -11
-13 -11 -14 1 -8 9 6 21 0 35 -16 11 -13 28 -23 36 -23 8 1 25 -4 37 -12 14
-8 24 -9 28 -3 4 6 11 7 17 4 6 -4 8 -2 5 3 -4 6 0 14 9 17 10 4 13 2 8 -7 -6
-9 -5 -9 8 0 8 7 19 9 23 5 5 -4 5 -1 1 6 -7 11 5 17 28 13 5 -1 6 5 3 14 -8
18 4 20 22 3 10 -11 12 -10 11 2 -4 28 0 41 10 35 6 -3 10 1 10 9 0 19 17 21
22 4 3 -7 7 -5 11 6 4 10 3 15 -3 11 -6 -3 -10 -3 -10 0 0 11 28 35 40 35 6 0
9 4 5 9 -3 6 4 15 15 21 11 6 18 15 15 20 -3 6 1 7 9 4 11 -4 16 0 16 11 0 9
5 13 11 9 7 -4 10 -1 7 7 -3 8 5 22 18 31 25 21 34 22 34 8 0 -6 11 -21 25
-34 14 -13 25 -29 25 -35 0 -7 5 -9 10 -6 6 3 13 -1 16 -9 3 -9 10 -13 15 -10
5 3 9 2 8 -3 -3 -17 1 -33 9 -32 19 3 23 -2 12 -16 -11 -13 -10 -14 5 -9 14 6
16 4 10 -7 -7 -11 -5 -11 10 1 11 9 16 10 11 3 -4 -7 -2 -13 3 -13 6 0 11 -8
11 -17 0 -9 3 -13 6 -10 4 3 19 -7 34 -23 15 -16 31 -26 35 -22 3 4 6 3 5 -3
-5 -22 1 -34 14 -29 7 3 21 -2 30 -11 9 -9 16 -12 16 -6 0 7 8 7 25 1 20 -8
27 -6 31 5 4 8 10 12 15 9 5 -3 9 0 9 7 0 7 3 9 6 6 8 -8 48 19 50 33 3 21 4
22 18 11 12 -10 13 -8 9 8 -3 12 -1 21 6 21 6 0 11 7 11 16 0 9 5 12 12 8 8
-5 9 -2 5 10 -4 10 -3 15 3 11 6 -3 10 -3 11 2 0 4 2 18 3 30 2 13 -2 23 -7
23 -5 0 -5 6 1 13 9 10 6 17 -8 27 -11 8 -20 18 -20 23 0 12 -27 37 -39 37 -6
0 -11 7 -11 15 0 8 -5 15 -11 15 -5 0 -7 5 -3 12 5 7 3 8 -5 4 -8 -5 -14 -1
-18 12 -3 13 -11 18 -19 15 -9 -3 -14 1 -14 12 0 9 -4 13 -10 10 -5 -3 -10 1
-10 9 0 9 -8 16 -17 16 -9 0 -14 3 -10 6 7 7 -84 100 -95 96 -16 -5 -7 17 12
31 11 8 17 17 13 20 -3 4 4 7 16 7 12 0 19 4 16 10 -3 6 -1 10 5 10 6 0 8 4 5
10 -3 5 1 10 9 10 9 0 16 5 16 11 0 5 5 7 10 4 6 -4 9 -3 8 2 -1 4 9 20 23 36
26 27 41 35 37 18 -4 -10 54 -66 65 -63 4 1 7 -3 7 -9 0 -14 87 -99 94 -91 3
3 6 -2 6 -11 0 -10 5 -17 11 -17 5 0 7 -4 4 -10 -3 -6 1 -7 9 -4 9 3 16 1 16
-5 0 -16 46 -61 61 -61 6 0 18 -8 25 -17 7 -10 14 -13 14 -6 0 8 9 9 31 3 25
-7 30 -6 25 5 -3 8 -2 14 2 14 4 -1 12 -1 18 0 15 1 90 73 86 83 -1 4 3 7 10
6 7 -2 13 2 13 7 1 6 9 26 18 45 10 23 12 37 5 41 -6 4 -8 11 -4 17 3 6 -1 17
-9 25 -8 9 -15 21 -15 27 0 6 -4 8 -10 5 -5 -3 -10 -1 -10 5 0 7 -11 21 -25
32 -14 11 -22 24 -19 30 4 6 2 8 -3 5 -13 -8 -46 27 -36 38 5 4 2 5 -4 1 -7
-4 -13 -2 -13 4 0 6 -4 8 -10 5 -5 -3 -10 -2 -10 4 0 13 -113 126 -122 123 -5
-1 -8 2 -8 6 0 11 57 62 70 62 5 0 6 7 3 17 -4 10 -2 14 4 10 6 -4 14 0 17 8
3 8 11 14 18 13 8 -2 12 5 10 16 -2 11 1 15 8 11 7 -4 14 2 17 15 3 13 11 19
19 16 8 -3 14 -2 14 3 0 13 36 51 48 51 7 0 9 7 5 17 -4 11 -3 14 5 9 7 -4 12
-1 12 9 0 9 4 14 8 11 5 -3 15 4 22 15 8 10 20 19 27 19 7 0 10 7 6 17 -4 11
-3 14 5 9 7 -4 12 -1 12 9 0 11 5 15 15 11 14 -5 20 6 16 28 -1 5 5 6 14 3 9
-4 15 -1 15 8 0 8 5 15 10 15 6 0 10 7 10 16 0 10 6 14 14 11 9 -4 17 2 21 14
4 10 11 19 16 19 5 0 9 7 9 16 0 10 5 14 15 10 10 -3 18 1 22 12 9 22 29 42
42 42 6 0 7 7 4 17 -4 11 -3 14 5 9 11 -7 17 6 13 28 -1 5 5 4 13 -4 13 -10
16 -10 16 4 0 9 5 16 11 16 5 0 7 5 3 12 -5 8 -2 9 9 5 10 -4 17 -1 17 6 0 7
9 19 19 27 11 7 18 17 15 22 -3 4 4 8 16 8 12 0 19 4 15 9 -3 5 8 19 25 31 24
17 34 19 45 10 8 -6 19 -9 25 -5 5 3 10 1 10 -5 0 -6 5 -8 10 -5 6 3 10 2 10
-4 0 -5 9 -8 20 -6 13 2 23 -2 27 -11 5 -13 7 -13 14 -2 6 8 9 9 9 1 0 -7 15
-10 41 -9 27 2 43 -2 46 -11 4 -10 8 -11 20 -2 10 9 17 9 25 1 8 -8 15 -9 25
-1 7 7 13 7 13 2 0 -6 25 -10 55 -10 30 0 52 4 49 9 -3 4 0 8 5 8 6 0 11 -4
11 -9 0 -5 17 -3 37 4 20 7 47 12 60 10 13 -1 23 2 23 7 0 6 7 8 15 4 10 -3
15 1 15 12 0 13 2 14 9 3 6 -9 10 -10 16 -2 5 9 10 9 21 0 12 -10 13 -9 8 6
-5 13 -4 16 4 11 7 -4 12 -3 12 2 0 6 13 9 29 8 20 -1 27 2 24 11 -3 8 3 13
16 13 12 0 21 5 21 11 0 5 5 7 10 4 6 -3 10 -1 10 4 0 6 3 10 8 10 19 -3 33 2
27 11 -6 9 8 14 28 11 4 0 7 7 7 17 0 14 2 15 10 2 8 -13 10 -12 10 3 0 9 4
17 10 17 14 0 140 127 133 134 -4 3 -1 6 6 6 7 0 9 5 5 12 -5 7 -3 8 5 4 8 -5
14 0 18 13 3 12 9 21 14 21 5 0 9 7 9 15 0 9 7 18 15 21 8 4 12 10 9 15 -3 5
0 9 6 9 7 0 10 7 6 15 -3 8 -1 15 5 15 6 0 7 5 4 10 -3 6 -1 10 4 10 6 0 11 9
11 20 0 11 4 20 10 20 5 0 9 3 9 8 -3 18 2 33 9 28 5 -3 6 9 4 26 -3 20 -1 29
6 24 6 -4 8 2 4 16 -3 12 -1 19 4 15 5 -3 10 17 12 45 1 28 6 56 12 63 6 8 5
16 -3 25 -7 7 -7 10 -1 7 14 -8 11 141 -3 188 -5 17 -8 40 -7 53 1 12 -2 22
-7 22 -5 0 -5 7 -2 17 5 12 3 14 -8 8 -12 -8 -12 -6 0 9 11 13 11 16 2 14 -8
-2 -15 5 -16 15 -2 9 2 17 7 17 6 0 1 9 -11 19 -13 11 -20 24 -17 30 3 5 -2
17 -11 27 -10 10 -17 19 -15 21 8 10 0 33 -12 33 -9 0 -13 7 -11 20 3 13 -2
20 -12 20 -9 0 -14 3 -10 6 3 4 -1 13 -9 21 -8 8 -11 19 -8 25 4 7 2 8 -4 4
-7 -4 -12 -3 -12 2 0 6 -34 44 -75 87 -41 42 -75 73 -75 70 0 -4 -8 1 -17 12
-10 10 -16 14 -13 8 3 -6 -2 -3 -11 7 -9 9 -19 14 -23 11 -3 -4 -6 -1 -6 5 0
6 -9 14 -20 17 -11 4 -18 10 -16 14 3 4 -5 8 -17 8 -12 1 -23 7 -25 13 -2 5
-8 8 -13 4 -5 -3 -9 -1 -9 5 0 6 -6 8 -14 5 -8 -3 -17 -1 -21 5 -3 6 -15 11
-26 11 -10 0 -19 5 -19 11 0 6 -6 9 -14 6 -7 -3 -19 0 -26 6 -10 9 -11 9 -6 0
4 -7 2 -13 -3 -13 -6 0 -11 6 -11 14 0 8 -9 13 -22 12 -13 -1 -29 3 -37 8 -11
8 -13 8 -8 -1 5 -7 0 -9 -13 -6 -11 3 -17 10 -13 17 4 6 0 5 -9 -2 -13 -10
-17 -10 -21 0 -4 10 -8 10 -16 -2 -7 -10 -11 -11 -11 -2 0 6 -5 12 -11 12 -5
0 -7 -4 -4 -10 3 -5 1 -10 -4 -10 -6 0 -11 4 -11 10 0 5 -18 9 -40 8 -21 -1
-37 -4 -35 -8 2 -4 -2 -7 -10 -7 -8 0 -12 4 -9 9 3 4 -2 8 -11 8 -10 0 -13 -5
-9 -12 5 -8 0 -7 -11 2 -10 8 -16 10 -12 4z m21 -526 c10 10 176 10 176 0 0
-4 4 -8 9 -8 5 0 22 -5 38 -12 15 -6 31 -11 36 -10 4 1 7 -3 7 -9 0 -5 5 -7
10 -4 6 3 10 -1 10 -9 0 -9 7 -16 15 -16 8 0 15 -7 15 -16 0 -9 9 -18 20 -21
18 -5 24 -15 21 -35 0 -5 4 -8 9 -8 6 0 10 -7 10 -15 0 -8 4 -15 10 -15 5 0 7
-6 4 -14 -3 -8 0 -17 7 -22 8 -5 10 -3 4 6 -5 8 -4 11 3 7 12 -8 11 -25 -2
-46 -6 -10 -5 -12 2 -7 8 5 11 -3 8 -23 -2 -18 1 -31 8 -32 7 0 7 -2 1 -5 -6
-2 -9 -21 -7 -41 3 -27 1 -34 -8 -28 -9 6 -11 4 -5 -6 14 -22 14 -50 0 -39 -8
6 -12 6 -13 -3 -3 -38 -7 -55 -12 -54 -3 1 -7 -2 -9 -8 -6 -16 -64 -80 -73
-80 -5 0 -13 -7 -18 -15 -5 -8 -13 -15 -17 -16 -4 0 -26 -9 -48 -18 -22 -10
-54 -19 -72 -19 -17 -1 -29 -5 -26 -10 3 -5 -4 -4 -15 2 -26 14 -35 14 -27 1
4 -7 -3 -7 -19 0 -14 5 -26 6 -26 2 0 -4 -5 0 -10 8 -8 12 -10 12 -10 1 0 -10
-3 -11 -13 -2 -8 6 -17 8 -20 4 -4 -3 -7 -1 -7 6 0 7 -4 9 -10 6 -5 -3 -10 -2
-10 2 0 5 -9 14 -21 21 -17 11 -20 11 -13 0 6 -10 5 -11 -8 -1 -8 7 -18 10
-22 6 -4 -4 -4 0 0 10 4 11 1 17 -8 17 -8 0 -21 11 -28 25 -7 14 -20 25 -27
25 -8 0 -11 5 -8 10 3 6 1 10 -5 10 -6 0 -9 4 -5 9 3 5 1 12 -5 16 -5 3 -10
15 -10 25 0 10 -6 25 -13 32 -7 7 -13 29 -12 48 0 19 -4 38 -10 42 -6 5 -5 8
3 8 6 0 12 5 12 11 0 5 -5 7 -12 3 -7 -5 -8 -3 -3 6 4 7 9 26 10 42 2 17 7 33
11 37 5 3 9 12 10 19 3 39 5 43 16 36 8 -5 9 -2 5 9 -3 10 -3 17 2 17 4 0 13
11 20 24 7 13 24 30 37 37 13 7 24 18 24 26 0 7 3 13 8 12 14 -2 52 14 52 22
0 5 8 5 17 2 13 -5 15 -2 10 12 -6 14 -5 16 6 7 8 -7 17 -8 21 -4z"/>
<path d="M1149 523 c-13 -16 -12 -17 4 -4 16 13 21 21 13 21 -2 0 -10 -8 -17
-17z"/>
<path d="M1216 422 c-2 -4 -1 -14 4 -22 7 -11 9 -9 7 8 -1 24 -3 26 -11 14z"/>
<path d="M1130 380 c0 -5 5 -10 11 -10 5 0 7 5 4 10 -3 6 -8 10 -11 10 -2 0
-4 -4 -4 -10z"/>
<path d="M1170 380 c0 -5 5 -10 11 -10 5 0 7 5 4 10 -3 6 -8 10 -11 10 -2 0
-4 -4 -4 -10z"/>
<path d="M1270 360 c0 -5 5 -10 11 -10 5 0 7 5 4 10 -3 6 -8 10 -11 10 -2 0
-4 -4 -4 -10z"/>
<path d="M575 340 c3 -5 8 -10 11 -10 2 0 4 5 4 10 0 6 -5 10 -11 10 -5 0 -7
-4 -4 -10z"/>
<path d="M610 339 c0 -5 5 -7 10 -4 6 3 10 8 10 11 0 2 -4 4 -10 4 -5 0 -10
-5 -10 -11z"/>
<path d="M1175 340 c-3 -5 -1 -10 4 -10 6 0 11 5 11 10 0 6 -2 10 -4 10 -3 0
-8 -4 -11 -10z"/>
</g>
</svg>
